<?xml version="1.0" encoding="UTF-8"?>
<svg id="Layer_1" xmlns="http://www.w3.org/2000/svg" version="1.1" viewBox="0 0 415.16 403.18">
  <!-- Generator: Adobe Illustrator 29.7.1, SVG Export Plug-In . SVG Version: 2.1.1 Build 8)  -->
  <defs>
    <style>
      .st0 {
        fill: #f7941d;
      }

      .st1 {
        fill: #ed1c24;
      }
    </style>
  </defs>
  <g id="g1438">
    <g id="g1406">
      <path id="path1392" class="st1" d="M376.83,215.56c0,5.59,0,10.38-.8,15.17-1.6,22.35-7.19,43.11-15.97,62.27-3.19,7.98-7.19,15.17-11.98,22.35-33.53,52.69-92.61,87.82-159.68,87.82-28.74,0-55.89-6.39-79.84-17.56C44.71,356.08,0,290.61,0,215.56S43.11,77.44,104.59,47.1c-4.79,6.39-9.58,12.77-13.57,19.96,0,.8-.8.8-.8,1.6-2.4,2.4-4.79,3.99-7.19,6.39-3.19,2.4-5.59,5.59-8.78,7.98l-1.6,1.6-1.6,1.6c-.8.8-1.6,2.4-3.19,3.19-1.6,2.4-3.99,4.79-5.59,7.19-7.98,10.38-14.37,21.56-19.16,33.53-.8.8-.8,2.4-1.6,3.19-.8,1.6-.8,3.19-1.6,3.99,0,.8-.8,1.6-.8,2.4-.8,2.4-1.6,3.99-2.4,6.39-.8,1.6-.8,3.19-1.6,3.99,0,.8-.8,1.6-.8,2.4,0,1.6-.8,3.19-.8,4.79l-2.4,14.37c0,1.6,0,2.4-.8,3.99v19.16c0,51.1,23.15,97.4,60.68,126.94,28.74,23.15,64.67,37.52,103.79,37.52,35.93,0,68.66-11.18,95.81-31.14,19.96-14.37,35.93-32.73,47.9-54.29,1.6-3.19,3.19-5.59,4.79-8.78,9.58-19.96,15.17-41.52,15.17-64.67v-5.59c0-5.59,0-10.38-.8-15.97l.8.8c2.4,2.4,4.79,3.99,7.19,6.39,2.4-3.99,4.79-7.19,7.19-11.18,1.6,7.19,2.4,14.37,3.19,22.35.8,7.19.8,12.77.8,18.36h0Z"/>
      <path id="path1394" class="st0" d="M210.77,64.67L175.64,0c-58.28,26.35-98.2,84.63-98.2,152.49,0,34.33,10.38,66.27,27.94,92.61-1.6-8.78-1.6-17.56-1.6-27.14.8-69.46,44.71-128.54,106.98-153.29Z"/>
      <path id="path1396" class="st1" d="M238.71,96.6c14.37-3.99,30.34-5.59,45.51-5.59,9.58,0,19.96.8,28.74,2.4l-.8-28.74-1.6-57.48c-6.39-.8-13.57-1.6-20.76-1.6-31.94,0-61.47,10.38-85.43,27.14l19.16,35.13c-34.33,11.98-62.27,35.93-79.84,67.06-8.78,15.17-15.17,32.73-17.56,51.1,4.79-9.58,10.38-18.36,16.77-26.35,23.15-30.34,56.68-53.49,95.81-63.07Z"/>
      <path id="path1398" class="st0" d="M322.54,63.87l1.6,40.72c-13.57-3.99-27.14-6.39-42.31-6.39-27.94,0-54.29,7.98-77.44,21.56-28.74,17.56-51.1,45.51-62.27,78.24,11.18-15.17,24.75-28.74,40.72-39.12,23.15-15.17,51.1-23.95,80.64-23.95,22.35,0,43.11,4.79,62.27,13.57,14.37,6.39,27.14,15.17,38.32,26.35l22.35-33.53,28.74-43.91c-25.55-20.76-57.48-33.53-92.61-33.53h0Z"/>
      <path id="path1400" class="st0" d="M358.47,196.4v5.59c0,33.53-13.57,61.47-15.17,64.67-1.6,3.19-3.19,5.59-4.79,8.78-11.98,21.56-27.94,39.92-47.9,54.29-27.14,19.16-59.88,31.14-95.81,31.14-39.12,0-75.85-13.57-103.79-37.52-36.73-30.34-60.68-75.85-60.68-126.94v-19.16c0-1.6,0-2.4.8-3.99l2.4-14.37c0-1.6.8-3.19.8-4.79,0-.8.8-1.6.8-2.4.8-1.6.8-3.19,1.6-3.99.8-2.4,1.6-4.79,2.4-6.39,0-.8.8-1.6.8-2.4.8-1.6.8-3.19,1.6-3.99.8-.8.8-2.4,1.6-3.19,4.79-11.98,11.98-23.15,19.16-33.53,1.6-2.4,3.99-4.79,5.59-7.19.8-.8,1.6-2.4,3.19-3.19.8-.8.8-1.6,1.6-1.6.8-.8.8-1.6,1.6-1.6,2.4-3.19,5.59-5.59,8.78-7.98,2.4-2.4,4.79-3.99,7.19-6.39,0,.8-.8.8-.8,1.6s-.8,1.6-.8,1.6c-9.58,19.16-15.97,42.31-18.36,66.27-.8,6.39-.8,12.77-.8,19.96,0,86.22,50.3,155.68,112.57,155.68h6.39c8.78,0,17.56-1.6,26.35-3.19,42.31-11.18,73.45-50.3,73.45-95.81v-2.4c-.8-27.14-11.98-51.89-30.34-68.66,12.77,0,25.55,2.4,37.52,5.59,23.15,5.59,43.91,16.77,62.27,31.14l.8.8c-.8,3.19,0,8.78,0,13.57h0Z"/>
      <g id="g1404">
        <path id="path1402" class="st0" d="M358.47,196.4v5.59c0,35.13-15.97,65.47-15.97,65.47-1.6,3.19-3.19,5.59-4.79,8.78-11.98,21.56-28.74,39.92-48.7,54.29-27.94,20.76-61.47,31.14-96.6,31.14-38.32,0-75.05-13.57-104.59-37.52-38.32-31.14-60.68-78.24-60.68-127.74s22.35-96.6,60.68-127.74l1.6-1.6c0,.8-.8.8-.8,1.6s-.8.8-.8,1.6c-37.52,31.14-59.08,76.64-59.08,126.14s21.56,95.01,59.88,126.94c28.74,23.95,66.27,36.73,103.79,36.73,34.33,0,67.86-10.38,95.81-31.14,19.96-14.37,35.93-32.73,47.9-54.29,1.6-3.19,3.19-5.59,3.99-8.78,0,0,15.97-29.54,15.97-64.67v-5.59c0-5.59,0-10.38-.8-15.97v-.8l.8.8.8.8c1.6,6.39,1.6,11.18,1.6,15.97h0Z"/>
      </g>
    </g>
  </g>
</svg>