<?xml version="1.0" encoding="UTF-8"?>
<svg id="Layer_1" xmlns="http://www.w3.org/2000/svg" version="1.1" viewBox="0 0 24 24">
  <!-- Generator: Adobe Illustrator 29.7.1, SVG Export Plug-In . SVG Version: 2.1.1 Build 8)  -->
  <defs>
    <style>
      .st0 {
        fill: #0e750e;
      }
    </style>
  </defs>
  <path class="st0" d="M17,3.34c4.78,2.76,6.42,8.88,3.66,13.66-2.76,4.78-8.88,6.42-13.66,3.66-3.09-1.79-5-5.09-5-8.66v-.32C2.18,6.16,6.8,1.83,12.32,2.01c1.64.05,3.25.51,4.68,1.33ZM10.79,7.72c-.49-.99-1.69-1.39-2.68-.89l-.55.28c-.49.26-.67.87-.41,1.35.25.46.82.65,1.3.43l.55-.28v1.38h-1c-.51,0-.93.38-.99.88v.12c0,.55.44,1,.99,1h1v3c0,1.59,1.24,2.9,2.82,2.99h.18s.5,0,.5,0c1.93,0,3.5-1.57,3.5-3.5v-.5c0-.55-.45-1-1-1h-1c-.55,0-1,.45-1,1v.12c.06.46.42.82.88.88h.03s-.02.06-.02.06c-.23.57-.78.95-1.4.95h-.5c-.55,0-1-.45-1-1v-3s4,0,4,0c.51,0,.93-.38.99-.88v-.12c0-.55-.44-1-.99-1h-4v-1.38c0-.25-.05-.49-.13-.72l-.07-.17h0Z"/>
</svg>