<?xml version="1.0" encoding="UTF-8"?>
<svg id="Layer_2" data-name="Layer 2" xmlns="http://www.w3.org/2000/svg" viewBox="0 0 83.83 37.94">
  <defs>
    <style>
      .cls-1 {
        letter-spacing: -.04em;
      }

      .cls-1, .cls-2, .cls-3, .cls-4 {
        font-family: Arial-BoldItalicMT, Arial;
        font-size: 3.06px;
        font-style: italic;
        font-weight: 700;
      }

      .cls-1, .cls-2, .cls-4 {
        fill: #050606;
      }

      .cls-5 {
        fill: #fff;
      }

      .cls-6 {
        fill-rule: evenodd;
      }

      .cls-6, .cls-7 {
        fill: #ef4a23;
      }

      .cls-8 {
        fill: none;
        stroke: #fff;
        stroke-width: .7px;
      }

      .cls-3 {
        fill: #231f20;
      }

      .cls-9 {
        fill: #2b398f;
      }

      .cls-4 {
        letter-spacing: -.02em;
      }
    </style>
  </defs>
  <g id="Layer_1-2" data-name="Layer 1">
    <g>
      <path class="cls-6" d="M78.64,22.02c2.53,1.04,3.96,2.22,3.96,3.47,0,4.25-16.49,7.69-36.83,7.69s-36.83-3.44-36.83-7.69c0-1.25,1.43-2.43,3.96-3.47h0c-3.3,1.18-5.2,2.55-5.2,4.01,0,4.39,17.04,7.95,38.06,7.95s38.06-3.56,38.06-7.95c0-1.46-1.89-2.83-5.19-4.01ZM78.57,22s.04.01.06.02c-.02,0-.03-.01-.05-.02h-.02Z"/>
      <path class="cls-7" d="M4.39,10.74c-1.22,0-2.25.25-3.07.74-.88.53-1.32,1.24-1.32,2.12s.44,1.58,1.32,2.11c.82.5,1.84.75,3.07.75h5.52c.36,0,.68.04.95.13.36.13.54.31.54.55s-.18.41-.54.55c-.28.11-.6.16-.95.16H2.16l-2.16,2.47h9.92c1.32,0,2.41-.28,3.28-.84.92-.58,1.38-1.35,1.38-2.3s-.45-1.74-1.36-2.34c-.88-.57-1.98-.85-3.29-.85h-5.51c-.41,0-.62-.13-.62-.39s.2-.39.62-.39h12.13v7.12h3.35v-7.12h3.26l2.19-2.47H4.39"/>
      <g>
        <polygon class="cls-9" points="40.24 21.27 39.84 23.4 42.25 23.4 40.99 29.92 43.4 29.92 44.67 23.4 47.2 23.4 47.6 21.27 40.24 21.27"/>
        <polygon class="cls-9" points="54.64 23.13 54.99 21.27 48.63 21.27 46.97 29.92 53.65 29.92 54.04 27.95 49.75 27.95 50.08 26.26 53.88 26.26 54.23 24.51 50.42 24.51 50.69 23.13 54.64 23.13"/>
        <path class="cls-9" d="M59.87,27.71c-.25.26-.56.39-.93.39-.4,0-.7-.14-.92-.43-.21-.29-.31-.65-.31-1.08,0-.56.1-1.14.3-1.73.2-.59.47-1.04.81-1.33.34-.29.68-.43,1.04-.43.27,0,.52.1.75.31.22.2.34.52.34.94v.05l2.21-.28c-.09-.9-.42-1.62-.99-2.17-.57-.55-1.34-.82-2.32-.82s-1.76.24-2.43.73c-.68.49-1.19,1.16-1.54,2.01-.35.85-.53,1.7-.53,2.55,0,1.1.3,1.99.89,2.65.59.67,1.45,1,2.57,1s1.95-.3,2.62-.92c.67-.61,1.12-1.36,1.36-2.25l-2.25-.39c-.19.54-.41.94-.67,1.2Z"/>
        <polygon class="cls-9" points="69.99 21.27 69.38 24.33 66.78 24.33 67.37 21.27 64.96 21.27 63.28 29.92 65.72 29.92 66.38 26.41 68.99 26.41 68.32 29.92 70.73 29.92 72.4 21.27 69.99 21.27"/>
      </g>
      <path class="cls-9" d="M29.73,14.66C35.51,4.94,45.87,1.89,56,2.86c9.37.73,19.3,9.22,24,16.11C74.42,9.23,65.18,1.04,52.99.09h0c-11.22-.87-21.28,4.6-27.52,12.69,0,0-1.95,2.3-.19,3.72,1.61,1.31,4.49-1.82,4.49-1.82"/>
      <path class="cls-7" d="M52.09,17.5c.84-.29,1.5-.71,1.97-1.25.48-.55.71-1.15.71-1.83,0-1.2-.59-2.12-1.78-2.77-1.05-.57-2.43-.85-4.12-.85h-1.08s-3.04,0-3.04,0h-2.74s-3.18.02-3.18.02h0s-4.12,0-4.12,0l1.7,2.46h1.42s0,0,0,0h9.96s1.39-.01,1.39-.01c1.41,0,2.12.38,2.12,1.13,0,.38-.24.67-.71.87-.37.15-.84.23-1.41.23h-9.36v4.89h3.35v-2.42h4.64l3.29,2.42h4.9l-3.93-2.89"/>
      <polyline class="cls-7" points="38.99 20.42 38.79 20.18 32.2 10.72 27.85 10.72 27.78 10.82 27.78 10.82 21.55 19.67 20.93 20.42 21 20.42 20.97 20.46 20.99 20.46 20.98 20.47 21.72 20.46 26.61 20.46 27.67 17.39 27.62 17.39 27.67 17.33 26.23 16.04 28.85 15.75 30.06 13.69 31.19 15.79 33.8 16.17 32.32 17.39 32.33 17.4 32.21 17.5 32.2 17.5 32.2 17.5 32.2 17.51 32.21 17.51 33.25 20.43 38.9 20.43 38.9 20.42 38.99 20.42"/>
      <polygon class="cls-5" points="34.36 15.74 31.32 15.33 29.96 12.81 28.6 15.33 25.55 15.74 27.76 17.71 27.24 20.48 29.96 19.17 32.68 20.48 32.16 17.71 34.36 15.74"/>
      <polygon class="cls-8" points="29.96 12.81 31.32 15.33 34.36 15.74 32.16 17.71 32.68 20.48 29.96 19.17 27.24 20.48 27.76 17.71 25.55 15.74 28.6 15.33 29.96 12.81"/>
      <polygon class="cls-9" points="33.92 15.83 31.18 15.46 29.96 13.19 28.73 15.46 25.99 15.83 27.98 17.6 27.51 20.1 29.96 18.92 32.41 20.1 31.94 17.6 33.92 15.83"/>
      <g>
        <text class="cls-2" transform="translate(40.47 36.79)"><tspan x="0" y="0">T</tspan></text>
        <text class="cls-2" transform="translate(42.29 36.79)"><tspan x="0" y="0">O</tspan></text>
        <text class="cls-2" transform="translate(44.67 36.79)"><tspan x="0" y="0">T</tspan></text>
        <text class="cls-1" transform="translate(46.31 36.79)"><tspan x="0" y="0">A</tspan></text>
        <text class="cls-4" transform="translate(48.52 36.79)"><tspan x="0" y="0">L</tspan></text>
        <text class="cls-3" transform="translate(50.33 36.79)"><tspan x="0" y="0" xml:space="preserve"> IT SOLUTION</tspan></text>
      </g>
    </g>
  </g>
</svg>